<?xml version="1.0" encoding="UTF-8"?>
<svg data-bbox="0.527 0.527 15.876 15.875" xmlns="http://www.w3.org/2000/svg" width="512" viewBox="0 0 16.933 16.933" height="512" data-type="shape">
    <g>
        <path d="M13.672.569c-.633.17-1.067.838-.835 1.48l2.006 5.54a.794.794 0 0 1 .504-.182c.3-.006.625-.005.915.013l-1.126-5.99c-.11-.584-.663-.936-1.224-.9-.08.004-.16.017-.24.039zm.35 1.018a.265.265 0 1 1 0 .53.265.265 0 0 1 0-.53zM7.834 3.461c-.658.287-1.059.905-1.263 1.477l-.22.617h3.192c.09-.242.213-.45.583-.666l2.586-1.632-.373-1.03a1.57 1.57 0 0 1-.093-.572zM6.087 6.085c-.436 0-.745.369-.791.763l.006-.033-.48 1.916h-3.5a.798.798 0 0 0-.795.793v1.854c0 .435.36.792.795.792h8.997a.792.792 0 0 0 .794-.798V9.524a.266.266 0 0 0-.02-.098L10.035 6.78a1.55 1.55 0 0 0-.238-.438.712.712 0 0 0-.535-.258zm.526 1.058h.796v2.118H6.192a.265.265 0 0 1-.256-.335L6.36 7.34a.265.265 0 0 1 .253-.197zm1.326 0h.85c.106 0 .202.064.243.162l1.002 2.381a.264.264 0 0 1 .022.104v1.059a.265.265 0 0 1-.264.263H8.204a.265.265 0 0 1-.22-.117l-.046-.068zm7.408.793a.265.265 0 0 0-.213.108l-2.38 3.174a.265.265 0 0 0 .21.423h1.588c1.022 0 1.851-.83 1.851-1.851V8.202a.265.265 0 0 0-.263-.266zM1.848 9.786a.264.264 0 0 1 .268.267v.796c.008.36-.537.36-.529 0v-.796a.264.264 0 0 1 .261-.267zm1.06 0a.264.264 0 0 1 .267.267v.796c.008.36-.537.36-.53 0v-.796a.264.264 0 0 1 .262-.267zm1.056 0a.264.264 0 0 1 .27.267v.796c-.009.345-.522.345-.53 0v-.796a.264.264 0 0 1 .26-.267zM2.382 12.7c-1.022 0-1.854.83-1.854 1.852s.832 1.85 1.854 1.85h8.201a1.852 1.852 0 0 0 0-3.702zm.53 1.058c.435 0 .792.358.792.794a.798.798 0 0 1-.793.794.8.8 0 0 1-.795-.794c0-.436.36-.794.795-.794zm2.38 0c.435 0 .793.358.793.794a.798.798 0 0 1-.793.794.8.8 0 0 1-.795-.794c0-.436.36-.794.795-.794zm2.38 0c.436 0 .794.358.794.794a.798.798 0 0 1-.793.794.798.798 0 0 1-.793-.794c0-.436.358-.794.793-.794zm2.382 0c.435 0 .795.358.795.794a.8.8 0 0 1-.795.794.798.798 0 0 1-.793-.794c0-.436.357-.794.793-.794z"/>
    </g>
</svg>
