<?xml version="1.0" encoding="UTF-8"?>
<svg data-bbox="0.043 0 511.905 511.99" viewBox="0 0 511.991 511.991" height="512" width="512" xmlns="http://www.w3.org/2000/svg" data-type="color">
    <g>
        <path fill="#ffffff" d="M39.143 170.485h-24.1c-8.284 0-15 6.716-15 15s6.716 15 15 15h24.1c19.869-.732 19.876-29.265 0-30zm457.9 0h-24.1c-8.284 0-15 6.716-15 15s6.716 15 15 15h24.1c19.87-.732 19.876-29.265 0-30zM92.065 42.719c14.566 13.532 34.75-6.638 21.213-21.213L96.239 4.467c-5.857-5.857-15.355-5.857-21.213 0s-5.858 15.355 0 21.213zm327.957 285.532c-14.567-13.531-34.749 6.639-21.213 21.213l17.039 17.039c5.856 5.856 15.353 5.86 21.213 0 5.858-5.857 5.858-15.355 0-21.213zm-327.957 0L75.026 345.29c-5.858 5.857-5.858 15.355 0 21.213 5.856 5.856 15.353 5.86 21.213 0l17.039-17.039c13.533-14.567-6.64-34.748-21.213-21.213zM415.848 4.467l-17.039 17.039c-5.858 5.857-5.858 15.355 0 21.213 5.856 5.856 15.353 5.86 21.213 0l17.039-17.039c13.533-14.567-6.639-34.747-21.213-21.213zm-89.325 196.018-28.289 28.289c15.771 30.505-7.694 68.572-42.192 68.111-25.989 0-47.133-21.143-47.133-47.133-.458-34.495 37.607-57.965 68.112-42.191l32.682-32.683a14.998 14.998 0 0 1 10.606-4.394h102.688c-23.246-202.181-310.738-202.033-333.91 0h96.476l28.289-28.289c-15.771-30.504 7.694-68.572 42.192-68.111 25.989 0 47.133 21.144 47.133 47.133.458 34.495-37.607 57.965-68.112 42.19l-32.682 32.683a14.998 14.998 0 0 1-10.606 4.394H89.098c3.781 41.903 23.278 80.992 54.821 109.005 17.178 15.879 28.321 37.216 31.737 60.12.037-.005 160.718-.005 160.774 0 3.414-22.899 14.558-44.239 31.738-60.12 31.543-28.012 51.041-67.102 54.821-109.005h-96.466zM176.777 416.741c0 38.579 27.709 70.791 64.267 77.824-1.491 23.241 31.497 23.227 30 0 36.558-7.033 64.267-39.245 64.267-77.824v-17.134H176.777z" data-color="1"/>
        <path fill="#ffffff" d="M273.177 121.219c0-9.447-7.687-17.134-17.134-17.134-22.699.862-22.693 33.409 0 34.268 9.447-.001 17.134-7.687 17.134-17.134zm-34.268 128.533c0 9.447 7.687 17.134 17.134 17.134 22.699-.862 22.693-33.409 0-34.267-9.447 0-17.134 7.686-17.134 17.133z" data-color="1"/>
    </g>
</svg>
