<?xml version="1.0" encoding="UTF-8"?>
<svg data-bbox="0.371 0 38.632 30" xmlns="http://www.w3.org/2000/svg" viewBox="0 0 39 30" height="30" width="39" data-type="color">
    <g>
        <g clip-path="url(#2ba962dd-7043-476c-9f51-ef6a7f999049)">
            <path fill="#ffffff" d="M7.373 29.934v-1.99c0-.762-.464-1.26-1.26-1.26-.399 0-.832.13-1.13.563-.231-.363-.564-.564-1.062-.564-.333 0-.665.1-.928.464v-.398h-.696v3.185h.696v-1.759c0-.564.297-.83.761-.83s.696.297.696.83v1.76h.696v-1.76c0-.564.333-.83.762-.83.464 0 .696.297.696.83v1.76h.769Zm10.322-3.185h-1.129v-.963h-.696v.963h-.63v.63h.63v1.461c0 .73.298 1.16 1.094 1.16.298 0 .63-.1.863-.232l-.202-.6a1.113 1.113 0 0 1-.599.167c-.332 0-.464-.2-.464-.53V27.38h1.13v-.63h.003Zm5.907-.07a.943.943 0 0 0-.83.464v-.398h-.697v3.185h.696v-1.793c0-.53.232-.832.665-.832.131 0 .298.035.433.066l.201-.665c-.14-.027-.336-.027-.468-.027Zm-8.926.333c-.333-.232-.797-.333-1.295-.333-.797 0-1.326.398-1.326 1.029 0 .53.398.83 1.094.927l.332.035c.364.066.565.166.565.333 0 .232-.267.398-.731.398-.464 0-.831-.166-1.063-.333l-.333.53c.364.267.862.398 1.361.398.928 0 1.462-.433 1.462-1.028 0-.565-.434-.862-1.095-.963l-.332-.035c-.298-.034-.53-.1-.53-.297 0-.232.232-.364.6-.364.398 0 .796.167.997.267l.294-.564Zm18.514-.333a.943.943 0 0 0-.831.464v-.398h-.696v3.185h.696v-1.793c0-.53.232-.832.665-.832.131 0 .297.035.433.066l.2-.657c-.135-.035-.332-.035-.467-.035Zm-8.892 1.663c0 .962.665 1.658 1.694 1.658.463 0 .796-.1 1.128-.363l-.332-.565c-.267.201-.53.298-.831.298-.565 0-.963-.398-.963-1.028 0-.6.398-.998.963-1.029.297 0 .564.1.83.298l.333-.564c-.332-.267-.665-.364-1.129-.364-1.028-.004-1.693.696-1.693 1.659Zm6.437 0v-1.593h-.696v.398c-.232-.298-.564-.464-.997-.464-.897 0-1.593.696-1.593 1.659 0 .962.696 1.658 1.593 1.658.464 0 .796-.166.997-.464v.398h.696v-1.592Zm-2.555 0c0-.565.363-1.029.962-1.029.565 0 .963.433.963 1.029 0 .564-.398 1.028-.963 1.028-.595-.035-.962-.468-.962-1.028Zm-8.328-1.663c-.928 0-1.593.665-1.593 1.659 0 .997.665 1.658 1.628 1.658.464 0 .928-.131 1.295-.433l-.332-.498a1.58 1.58 0 0 1-.928.332c-.433 0-.862-.201-.963-.762h2.355v-.266c.03-1.025-.569-1.69-1.462-1.69Zm0 .6c.433 0 .731.266.797.761H18.99c.066-.43.364-.762.862-.762Zm17.289 1.063v-2.854h-.696v1.659c-.232-.298-.564-.464-.997-.464-.897 0-1.593.696-1.593 1.659 0 .962.696 1.658 1.593 1.658.464 0 .796-.166.997-.464v.398h.696v-1.592Zm-2.555 0c0-.565.363-1.029.962-1.029.565 0 .963.433.963 1.029 0 .564-.398 1.028-.963 1.028-.6-.035-.962-.468-.962-1.028Zm-23.297 0v-1.593h-.696v.398c-.232-.298-.564-.464-.997-.464-.897 0-1.593.696-1.593 1.659 0 .962.696 1.658 1.593 1.658.464 0 .796-.166.997-.464v.398h.696v-1.592Zm-2.586 0c0-.565.363-1.029.962-1.029.565 0 .963.433.963 1.029 0 .564-.398 1.028-.963 1.028-.599-.035-.962-.468-.962-1.028Z" data-color="1"/>
            <path fill="#ffffff" d="M15.14 11.946c0-3.816 1.793-7.202 4.546-9.39A11.882 11.882 0 0 0 12.317 0C5.714 0 .371 5.343.371 11.946s5.343 11.946 11.946 11.946c2.787 0 5.343-.963 7.369-2.556a11.922 11.922 0 0 1-4.547-9.39Z" opacity=".5" data-color="1"/>
            <path fill="#ffffff" d="M39.002 11.946c0 6.603-5.343 11.946-11.946 11.946-2.787 0-5.343-.963-7.369-2.556a11.88 11.88 0 0 0 4.547-9.39c0-3.816-1.794-7.202-4.547-9.39A11.863 11.863 0 0 1 27.053 0c6.607 0 11.95 5.378 11.95 11.946Z" data-color="1"/>
            <path fill="#ffffff" d="M19.687 21.336a11.88 11.88 0 0 0 4.546-9.39c0-3.816-1.793-7.202-4.546-9.39-2.753 2.188-4.546 5.574-4.546 9.39 0 3.816 1.79 7.233 4.546 9.39Z" clip-rule="evenodd" fill-rule="evenodd" opacity=".7" data-color="1"/>
        </g>
        <defs fill="none">
            <clipPath id="2ba962dd-7043-476c-9f51-ef6a7f999049">
                <path transform="translate(.371)" fill="#ffffff" d="M38.629 0v30H0V0h38.629z"/>
            </clipPath>
        </defs>
    </g>
</svg>
