<?xml version="1.0" encoding="UTF-8"?>
<svg data-bbox="465.54 300.22 1068.924 1400" xmlns="http://www.w3.org/2000/svg" viewBox="0 0 2000 2000" data-type="shape">
    <g>
        <path d="M800.38 311.75c0-6.37-5.16-11.53-11.53-11.53H627.4c-6.37 0-11.53 5.16-11.53 11.53v52.63h80.25c9.71 0 17.54 7.96 17.35 17.7-.18 9.55-8.38 17.02-17.93 17.02h-79.68v64.16h79.68c9.55 0 17.75 7.47 17.93 17.02.18 9.73-7.65 17.69-17.35 17.69h-80.25v64.15h79.69c9.56 0 17.76 7.49 17.92 17.05.17 9.73-7.66 17.66-17.35 17.66h-80.25v64.16h79.68c9.55 0 17.75 7.47 17.93 17.02.18 9.74-7.65 17.69-17.35 17.69h-80.25v64.16h79.68c9.55 0 17.75 7.47 17.93 17.02.18 9.74-7.65 17.69-17.35 17.69H615.9v72.76h184.52V311.75z"/>
        <path d="M1366.57 867.33c16.34-18.47 38.7-74.37 17.5-243.03-9.98-79.31-26.02-153.45-32.71-182.77h-82.82c-6.71 29.31-22.74 103.46-32.71 182.77-21.22 168.66 1.15 224.56 17.48 243.03z"/>
        <path d="M1327.29 325.67c0-9.58-7.76-17.36-17.36-17.36-9.58 0-17.36 7.78-17.36 17.36v81.16h34.71v-81.16z"/>
        <path d="M1381.95 420.05c.07.28 2.15 8.82 5.4 23.4 19.22 3.87 35.7 13.61 50.03 29.46 88.7 98.04 56.62 380.93 56.28 383.77-1.11 9.53 5.69 18.15 15.22 19.27.69.07 1.37.11 2.06.11 8.68 0 16.16-6.48 17.2-15.31 1.44-12.26 34.23-301.4-64.99-411.11-26.2-28.99-59.15-43.39-98.04-42.81 7.99 0 14.94 5.45 16.84 13.22z"/>
        <path d="M1018.56 344.68c-3.43-7.33-13.85-7.33-17.27 0L942.88 469.7h134.1z"/>
        <path d="M1027.91 504.41h51.36v362.92h-51.36z"/>
        <path d="M940.58 504.41h52.61v362.92h-52.61z"/>
        <path d="m1310.45 1566.71 113.04-652.36c1.11-6.43-3.84-12.32-10.37-12.32H573.6c-6.53 0-11.48 5.88-10.37 12.32l113.03 652.36h-77.21c-73.73 0-133.51 59.77-133.51 133.51h1068.91c0-73.73-59.77-133.51-133.51-133.51zM693.28 980.57c9.46-1.56 18.4 4.83 19.97 14.29l84.53 510.29c1.57 9.46-4.83 18.4-14.29 19.97-.96.15-1.92.24-2.85.24-8.34 0-15.7-6.03-17.11-14.52L679 1000.54c-1.57-9.46 4.83-18.4 14.28-19.97z"/>
    </g>
</svg>
