<?xml version="1.0" encoding="UTF-8"?>
<svg data-bbox="9.275 0.533 41.403 58.938" xmlns="http://www.w3.org/2000/svg" width="512" viewBox="0 0 60 60" height="512" data-type="ugc">
    <g>
        <path fill="#346d92" d="M22.65 20.387a.5.5 0 0 1-.355-.852l1.2-1.208-2.62 1.513a.5.5 0 0 1-.6-.791l2.221-2.173-3.628 2.095a.5.5 0 0 1-.56-.825l1.182-.938-1.178.68a.5.5 0 0 1-.575-.814l2.191-1.864-2.309 1.332a.5.5 0 0 1-.594-.8l3.069-2.9-3.374 1.948a.5.5 0 0 1-.556-.828l.691-.535-.645.373a.5.5 0 0 1-.552-.832l.154-.116-.069.04a.5.5 0 0 1-.619-.771l1.96-2.141a.5.5 0 0 1 .011-.86l1.714-.99a.5.5 0 0 1 .619.771l-1.376 1.5 4.248-2.45a.5.5 0 0 1 .552.832L22.7 8.9l.069-.04a.5.5 0 0 1 .555.829l-.688.533.641-.371a.5.5 0 0 1 .594.8l-3.069 2.9 3.376-1.951a.5.5 0 0 1 .574.814l-2.189 1.863 2.306-1.331a.5.5 0 0 1 .561.825l-1.183.938 1.179-.681a.5.5 0 0 1 .6.791l-2.219 2.173 2.423-1.4a.5.5 0 0 1 .606.785l-1.2 1.208 1.247-.72a.5.5 0 0 1 .728.577l-.226.756.141-.082a.5.5 0 1 1 .5.866l-1.233.712a.5.5 0 0 1-.729-.577l.227-.756L22.9 20.32a.5.5 0 0 1-.25.067z"/>
        <path fill="#204860" d="M14.318 6.131a.5.5 0 0 1-.375-.831l.843-.952-.846.488a.5.5 0 0 1-.658-.722l1.061-1.5-.979.565a.5.5 0 0 1-.5-.867l2.953-1.7a.5.5 0 0 1 .659.722l-1.061 1.5 1.526-.882a.5.5 0 0 1 .625.764l-.842.954.855-.5a.5.5 0 0 1 .5.867l-3.511 2.027a.5.5 0 0 1-.25.067z"/>
        <path fill="#295474" d="M15.012 11.979a.5.5 0 0 1-.316-.888l1.551-1.258-1.58.913a.5.5 0 0 1-.574-.814l2.179-1.857L13.98 9.4a.5.5 0 0 1-.6-.794l2.136-2.048-2.1 1.215a.5.5 0 1 1-.5-.866L18.6 3.623a.5.5 0 0 1 .6.794l-2.137 2.047 3.459-2a.5.5 0 0 1 .575.814l-2.181 1.86 2.3-1.331a.5.5 0 0 1 .565.821l-1.55 1.257 1.59-.918a.5.5 0 1 1 .5.866l-7.064 4.079a.491.491 0 0 1-.245.067z"/>
        <path fill="#fcc10a" d="M28.65 20.5a.5.5 0 0 1-.3-.9l.749-.563-.819.472a.5.5 0 0 1-.559-.826l2.457-1.931-1.9 1.095a.5.5 0 0 1-.56-.825l2.6-2.058-2.038 1.174a.5.5 0 0 1-.571-.816l2.677-2.245-2.106 1.215a.5.5 0 0 1-.593-.8l1.758-1.654-1.165.673a.5.5 0 0 1-.716-.614l.422-1.09a.5.5 0 0 1-.206-.931l.884-.51a.5.5 0 0 1 .716.613l-.37.956 3.662-2.115a.5.5 0 0 1 .593.8l-1.759 1.655 3.331-1.923a.5.5 0 0 1 .571.815l-2.676 2.246 2.992-1.727a.5.5 0 0 1 .56.825l-2.6 2.058 2.043-1.179a.5.5 0 0 1 .559.826l-2.454 1.93 1.9-1.1a.5.5 0 0 1 .551.832l-.753.567.206-.119a.5.5 0 0 1 .566.821l-.428.347a.5.5 0 0 1 .547.74l-.8 1.356.125-.072a.5.5 0 0 1 .5.866l-1.77 1.026a.5.5 0 0 1-.681-.687l.8-1.356-3.561 2.056a.5.5 0 0 1-.565-.821l.326-.265-1.9 1.094a.5.5 0 0 1-.245.069z"/>
        <path fill="#d6dbe3" d="M29.2 10.5a.5.5 0 0 1-.33-.875l1.252-1.1-1.842 1.053a.5.5 0 0 1-.577-.811l.624-.541-.047.027a.5.5 0 0 1-.708-.634l.359-.817a.5.5 0 0 1-.151-.923l.884-.51a.5.5 0 0 1 .708.631l-.272.623 3.254-1.879a.5.5 0 0 1 .578.811l-.624.541 1.66-.959a.5.5 0 0 1 .58.808L33.3 7.052l2.426-1.4a.5.5 0 0 1 .607.783l-1.267 1.3.672-.389a.5.5 0 0 1 .7.642l-.414.9a.5.5 0 0 1 .222.932l-1.02.59a.5.5 0 0 1-.7-.642l.354-.775-2.48 1.424a.5.5 0 0 1-.607-.782l1.27-1.295-3.618 2.089a.5.5 0 0 1-.245.071z"/>
        <path fill="#d6dbe3" d="M40.783 20.427a.5.5 0 0 1-.342-.865l2.044-1.919-3.878 2.239a.5.5 0 0 1-.569-.818l4.1-3.4-5.551 3.205a.5.5 0 0 1-.551-.832l5.109-3.852-3.611 2.085a.5.5 0 0 1-.534-.846l1.239-.859-.106.062a.5.5 0 0 1-.533-.845l1-.682a.5.5 0 0 1-.42-.893l1.044-.72a.5.5 0 0 1-.489-.859l4.761-3.792-3.19 1.839a.5.5 0 0 1-.567-.82l2.4-1.959-1.033.6a.5.5 0 0 1-.571-.817l.89-.741a.5.5 0 0 1-.4-.763l1.23-1.99a.5.5 0 0 1-.064-.9l1.067-.621a.5.5 0 0 1 .675.7l-1.019 1.645 2.7-1.559a.5.5 0 0 1 .571.817l-.535.445 1.32-.762a.5.5 0 0 1 .566.821l-2.395 1.958 3.649-2.107a.5.5 0 0 1 .562.824l-4.761 3.792L49.505 4.4a.5.5 0 0 1 .534.845l-1.051.724a.5.5 0 0 1 .459.88l-1 .688a.5.5 0 0 1 .415.894l-1.244.861.1-.057a.5.5 0 0 1 .551.833l-5.109 3.85 3.6-2.077a.5.5 0 0 1 .569.818l-4.1 3.4 2.508-1.449a.5.5 0 0 1 .592.8l-2.045 1.92.571-.33a.5.5 0 0 1 .5.866l-4.322 2.5a.5.5 0 0 1-.25.061z"/>
        <path fill="#3d535e" d="M19.045 56.5a.5.5 0 0 1-.274-.919l11.46-7.471-13.951 8.052a.5.5 0 0 1-.52-.853l12.066-7.746-11.546 6.666a.5.5 0 0 1-.516-.855l8.6-5.43-8.084 4.666a.5.5 0 0 1-.518-.854l10.785-6.877-10.267 5.928a.5.5 0 0 1-.522-.852l14.122-9.184-13.6 7.852a.5.5 0 0 1-.522-.852l14.351-9.347-13.829 7.983a.5.5 0 0 1-.518-.854l11.009-7.028-10.491 6.057a.5.5 0 0 1-.514-.856l5.1-3.185-4.586 2.649a.5.5 0 0 1-.515-.856l6.835-4.291-6.32 3.651a.5.5 0 0 1-.512-.858l1.165-.719-.653.376a.5.5 0 0 1-.521-.852l10.992-7.093-10.471 6.045a.5.5 0 0 1-.522-.852l9.1-5.926-8.578 4.956a.5.5 0 0 1-.53-.847l9.45-6.385-8.92 5.151a.5.5 0 0 1-.523-.851l3.585-2.339-3.062 1.764a.5.5 0 0 1-.524-.851l1.98-1.3-1.456.84a.5.5 0 0 1-.542-.839l5.109-3.675-4.567 2.635a.5.5 0 0 1-.545-.837l2.85-2.076-2.3 1.331a.5.5 0 0 1-.556-.828l1.99-1.544-1.434.827a.5.5 0 0 1-.59-.8l1.574-1.455-.984.568a.5.5 0 0 1-.621-.769l.462-.511a.506.506 0 0 1-.408-.105.5.5 0 0 1-.155-.548l.2-.588a.5.5 0 0 1 .021-.853l.5-.29a.5.5 0 0 1 .723.595l-.067.2 1.375-.794a.5.5 0 0 1 .621.769l-.4.441 2.1-1.212a.5.5 0 0 1 .59.8l-1.575 1.456 3.914-2.259a.5.5 0 0 1 .556.828l-1.991 1.545 4.114-2.376a.5.5 0 0 1 .545.838L23.936 24.5l5.05-2.917a.5.5 0 0 1 .542.839L24.422 26.1l7.822-4.516a.5.5 0 0 1 .525.851l-1.985 1.3 3.737-2.157a.5.5 0 0 1 .523.852l-3.58 2.34 5.531-3.194a.5.5 0 0 1 .53.847l-9.455 6.386 12.53-7.237a.5.5 0 0 1 .523.852l-9.101 5.926 11.745-6.781a.5.5 0 0 1 .521.853l-10.995 7.094 12.428-7.175a.5.5 0 0 1 .512.859l-1.166.72.655-.378a.5.5 0 0 1 .515.856l-6.826 4.283 6.312-3.644a.5.5 0 0 1 .514.857l-5.125 3.2 4.613-2.663a.5.5 0 0 1 .518.855l-11.005 7.022 10.488-6.056a.5.5 0 0 1 .522.852L31.9 38.453l13.832-7.986a.5.5 0 0 1 .522.852L32.134 40.5l13.6-7.85a.5.5 0 0 1 .519.855l-10.8 6.885 10.28-5.936a.5.5 0 0 1 .517.856l-8.594 5.426 8.078-4.664a.5.5 0 0 1 .521.854l-12.07 7.745L45.734 38a.5.5 0 0 1 .524.851L34.8 46.324l10.936-6.314a.5.5 0 0 1 .52.853L40.1 44.81l5.636-3.254a.5.5 0 0 1 .529.848l-8.339 5.577 7.812-4.509a.5.5 0 0 1 .531.846l-6.338 4.3 5.809-3.353a.5.5 0 0 1 .54.84l-5.96 4.248 5.422-3.13a.5.5 0 0 1 .556.828l-4.9 3.785 4.342-2.507a.5.5 0 0 1 .569.817l-2.947 2.446 2.38-1.374a.5.5 0 0 1 .61.779l-1.712 1.785 1.1-.637a.5.5 0 0 1 .72.6l-.445 1.22a.5.5 0 0 1 .227.932l-.874.5a.5.5 0 0 1-.72-.6l.4-1.1-2.948 1.71a.5.5 0 0 1-.611-.779l1.711-1.785-4.449 2.567a.5.5 0 0 1-.569-.817l2.947-2.446-5.656 3.266a.5.5 0 0 1-.556-.828l4.895-3.785-8 4.615a.5.5 0 0 1-.54-.84l5.96-4.253-8.827 5.1a.5.5 0 0 1-.53-.847l6.34-4.3-8.914 5.147a.5.5 0 0 1-.529-.849l8.344-5.581-11.138 6.435a.5.5 0 0 1-.52-.854l6.148-3.941L19.3 56.43a.494.494 0 0 1-.255.07z"/>
        <path fill="#b9bfcc" d="M17.21 23.471a.5.5 0 0 1-.383-.821l1.485-1.768-3.366 1.943a.5.5 0 0 1-.592-.8l.454-.429-.419.242a.5.5 0 0 1-.647-.737l.483-.631a.5.5 0 0 1-.152-.923l1.627-.94a.5.5 0 0 1 .647.738l-.285.373 1.946-1.118a.5.5 0 0 1 .593.8l-.455.429L20.27 18.6a.5.5 0 0 1 .632.754l-1.484 1.768 4.368-2.522a.5.5 0 0 1 .608.783l-1.3 1.328 3.653-2.111a.5.5 0 0 1 .619.77l-1.422 1.558 4.035-2.328a.5.5 0 0 1 .606.784l-1.294 1.313 3.633-2.1a.5.5 0 0 1 .629.759l-1.472 1.71 4.275-2.466a.5.5 0 0 1 .627.762l-1.463 1.68 4.229-2.442a.5.5 0 0 1 .6.785l-1.283 1.3 3.612-2.085a.5.5 0 0 1 .6.792L42.1 20.536l3.361-1.94a.5.5 0 0 1 .629.759l-1.472 1.708 2.745-1.584a.5.5 0 0 1 .7.66l-.785 1.537.151-.087a.5.5 0 0 1 .5.867l-1.614.932a.5.5 0 0 1-.7-.66l.785-1.538-3.837 2.21a.5.5 0 0 1-.628-.759l1.471-1.709-4.274 2.468a.5.5 0 0 1-.6-.791l1.18-1.15-3.36 1.941a.5.5 0 0 1-.606-.784l1.283-1.3-3.606 2.084a.5.5 0 0 1-.627-.761l1.464-1.68-4.23 2.441a.5.5 0 0 1-.629-.759l1.472-1.71L26.6 23.4a.5.5 0 0 1-.607-.784l1.294-1.314-3.634 2.1a.5.5 0 0 1-.619-.77l1.422-1.558-4.035 2.326a.5.5 0 0 1-.608-.783l1.3-1.328L17.46 23.4a.5.5 0 0 1-.25.071z"/>
        <path fill="#b9bfcc" d="M35.468 59.471a.5.5 0 0 1-.324-.881l.465-.4-2.1 1.211a.5.5 0 0 1-.636-.751l1.49-1.806-4.426 2.556a.5.5 0 0 1-.615-.775l1.382-1.47-3.89 2.245a.5.5 0 0 1-.571-.816l.3-.252-1.85 1.068a.5.5 0 0 1-.649-.733l1.491-1.981-4.7 2.714a.5.5 0 0 1-.641-.745l1.495-1.865-4.522 2.61a.5.5 0 0 1-.576-.811l.55-.474-1.8 1.04a.5.5 0 0 1-.6-.792l.911-.883-1.174.678a.5.5 0 0 1-.671-.7l.634-.988a.5.5 0 0 1-.549-.237.5.5 0 0 1 .182-.682l1.627-.94a.5.5 0 0 1 .671.7l-.611.953 2.89-1.664a.5.5 0 0 1 .6.792l-.91.881 2.9-1.673a.5.5 0 0 1 .576.811l-.547.472 2.223-1.283a.5.5 0 0 1 .641.745l-1.5 1.866 4.527-2.611a.5.5 0 0 1 .65.733l-1.492 1.981 4.7-2.714a.5.5 0 0 1 .571.816l-.3.252 1.852-1.068a.5.5 0 0 1 .614.775l-1.382 1.47 3.889-2.245a.5.5 0 0 1 .635.751l-1.49 1.806 4.431-2.557a.5.5 0 0 1 .574.813l-.465.4 2.1-1.21a.5.5 0 0 1 .592.8l-1.046.982 3.079-1.785a.5.5 0 0 1 .607.782l-1.307 1.336 2.927-1.694a.5.5 0 0 1 .624.765l-1.068 1.2 1.194-.689a.5.5 0 0 1 .635.752l-.421.507a.489.489 0 0 1 .24.21.5.5 0 0 1-.182.683l-1.614.932a.5.5 0 0 1-.635-.752l.057-.07-1.45.837a.5.5 0 0 1-.624-.764l1.07-1.2-3.41 1.965a.5.5 0 0 1-.607-.782l1.307-1.335-3.67 2.117a.5.5 0 0 1-.592-.8l1.045-.981-3.081 1.781a.493.493 0 0 1-.25.071z"/>
        <path fill="#ec3a48" d="M29.833 6.494a.5.5 0 0 1-.319-.885l1.186-.981-2.421 1.395a.5.5 0 0 1-.587-.8l1.583-1.442-1 .575a.5.5 0 0 1-.711-.626l.654-1.558a.5.5 0 0 1-.358-.921L28.991.6a.5.5 0 0 1 .711.626l-.639 1.523L32.787.6a.5.5 0 0 1 .587.8L31.79 2.842 35.315.807a.5.5 0 0 1 .57.818l-1.183.98 1.021-.589a.5.5 0 0 1 .6.794l-.723.69.13-.076a.5.5 0 0 1 .738.546l-.288 1.25a.5.5 0 0 1 .064.9l-.5.29a.5.5 0 0 1-.737-.546l.229-1-2.689 1.553a.5.5 0 0 1-.6-.793l.716-.689-2.58 1.492a.5.5 0 0 1-.25.067z"/>
        <path d="M19.5 4.1h-.006a.221.221 0 0 0 .028.059.246.246 0 0 0-.022-.059z" fill="#262626"/>
        <path d="M11.807 14.5c.6.2 1.191.4 1.777.628a13.819 13.819 0 0 1 3.352 1.789l.855 1.672c-.484 0-.968 0-1.45.012a2.967 2.967 0 0 0-3.041 2.17 2.251 2.251 0 0 0 1.971 2.563v31.533a2.577 2.577 0 0 0-1.965 1.927c-.275 1.547 1.039 2.492 2.429 2.528 4.689.12 9.4 0 14.087 0h15.872c1.586-.128 3.56-1.251 2.928-3.148a2.175 2.175 0 0 0-1.9-1.439V38.9a.1.1 0 0 0 0-.085v-15.61c1.388-.471 2.535-1.785 1.775-3.318a2.583 2.583 0 0 0-2.479-1.282h-.6l2.886-7.82 1.836-4.976c.385-1.043 1.1-2.378-.239-3.079a37.517 37.517 0 0 0-4.383-1.635c-1.3-.479-3.046-1.195-3.808.534C40.541 4.3 39.7 7.17 38.7 9.911l-1.962 5.378V5.946a.4.4 0 0 0-.026-.1c0-.013.017-.024.017-.037v-3.56c0-.636-.092-1.258-.813-1.476a4.452 4.452 0 0 0-1.253-.065h-4.3c-1.2 0-3.076.022-3.088 1.614-.009 1.235 0 2.471 0 3.707 0 .009-.009.017-.009.027v9.9L21.378 4.431a5.339 5.339 0 0 0-.287-.545c-.535-.81-1.586-.6-2.33-.227l-.055.029-.8-1.577c-.142-.279-.28-.559-.427-.835A1.6 1.6 0 0 0 15.324.8c-.734.342-1.442.752-2.16 1.127a1.352 1.352 0 0 0-.851 1.364 2.953 2.953 0 0 0 .365.808l1.088 2.131c-.842.426-1.675 1.011-1.3 1.932.05.125.111.247.167.371a3.342 3.342 0 0 0-3.318 2.6 2.832 2.832 0 0 0 1.024 2.685 4.325 4.325 0 0 0 1.468.682zm5.779 8.93c1.057.022 2.114.035 3.172.033L16.726 27.5v-4.066zm25.739 11.013a.769.769 0 0 0 .425-.564l1.524-1.523v6.722l-2.12 2.12q-1.682-1.68-3.361-3.361l3.323-3.324a.988.988 0 0 0 .209-.07zm1.949 20.123h-4.781l-.646-.647 5.174-5.174.253-.253zM16.726 29.048q1.1-1.095 2.191-2.191l3.219 3.219-4.991 4.991-.419.419zm13.628-5.614h6.512l-2.087 2.088c-.035.013-.071.019-.1.035a.848.848 0 0 0-.415.484l-3.132 3.132-3.256-3.257.983-.983zm7.983 30.831a.354.354 0 0 0 .116.115l.185.186h-7.556l.2-.206c.272-.107.482-.283.472-.472l3.1-3.1zm-15.158-1.074q-1.509-1.511-3.02-3.02l-.343-.343 3.018-3.018 3.366 3.363-1.869 1.869zm-.091 1.351a.9.9 0 0 0 .241-.085c.17-.092.432-.344.423-.579l3.075-3.078.57.569 2.791 2.792-.4.4h-6.724zm8.24-1.518-.164.164-3.364-3.361 3.048-3.048 3.361 3.361zM27.173 49.2l-3.363-3.366 3.048-3.048 3.363 3.363zM22.6 44.628l-2.766-2.766 3.049-3.049 3.328 3.329-3.045 3.048zm1.21-6.742 3.066-3.066 3.329 3.328-3.066 3.066-3.188-3.188zm3.973 3.972 3.066-3.066 3.363 3.363-3.066 3.066zm4.006-4.006 3.055-3.052 3.363 3.363-3.052 3.052zm-.644-.644-3.325-3.329 3.052-3.052 3.328 3.329zm-4.229-10.336 3.257 3.256-3.052 3.052-2.478-2.48-.779-.779zm-.736 7.249-3.066 3.066-3.256-3.257 3.066-3.066zm-9.454 2.941 2.2-2.2 3.257 3.256-3.564 3.563a.62.62 0 0 0-.366.367l-.1.1-1.434 1.434zm0 7.911 2.136-2.136 3.328 3.329-3.15 3.15-.149.149a.889.889 0 0 0-.22.078.81.81 0 0 0-.425.568l-1.52 1.519zm2.1 5.843 3.013 3.013.35.35-.386.387h-5.077v-1.649zm20.9 1.689-.648.648-3.29-3.293 3.066-3.066 3.293 3.293zm-4.586-3.293-3.361-3.361 3.066-3.066 2.512 2.515.849.849zm.645-7.367 3.052-3.052 3.363 3.361-3.052 3.052-3.363-3.361zm3.378-4.638L35.8 33.844l3.029-3.029 1.871 1.871 1.491 1.492zM35.156 33.2l-3.329-3.328 3.03-3.03 3.328 3.329zm2.144-5.886-1.457-1.457 2.423-2.423h6.657l-5.751 5.751zm-8.521-3.88-5.7 5.7-3.219-3.219 1.992-1.992.461-.461q1.416-.012 2.832-.03zm16.5 23.526-2.187 2.187-3.293-3.293 3.679-3.679a.563.563 0 0 0 .233-.233l.966-.966.6-.6zm0-15.863-2.1 2.095-3.363-3.363 3.145-3.145 2.314-2.314zm1.97 25.773c.088.62-.165 1.745-.943 1.808H18.644c-1.459 0-3.954.392-3.92-1.872a1.331 1.331 0 0 1 .9-1.384.736.736 0 0 0 .1.012h29.962a1.172 1.172 0 0 0 .379-.022 1.862 1.862 0 0 1 1.184 1.458zm-.9-34.3c-.024 0-.047-.008-.071-.008H30.471a.443.443 0 0 0-.046-.029.905.905 0 0 0-.618.029h-7.348c-.012 0-.019-.014-.031-.018a.987.987 0 0 0-.581.018h-5.553a1.687 1.687 0 0 1-1.543-1.436c-.381-2.24 2.3-1.735 3.591-1.735h9.1a.853.853 0 0 0 .5.136h8.018a1.3 1.3 0 0 0 .162-.026c.011 0 .023 0 .034-.006l.055-.009.025-.008a1.052 1.052 0 0 0 .244-.085h6.759c.248 0 .5-.006.749-.01a1 1 0 0 0 .959 0c.152 0 .3 0 .455.006.1 0 .213-.013.316 0 1.445.18 2.332 2.811.629 3.185zm-11.084-4.101h-2.541v-8.006h2.541zM28.734 7.556V6.532h6.531v3.005h-6.531zm2.541 2.907v8.006h-2.541v-8.006zm11.469-7.7a5.468 5.468 0 0 1 .349-.957c.22-.36.36-.206.721-.072l4.7 1.735c1.1.405.617 1.2.309 2.034l-.687 1.86-1.63-.6-.354-.131a.941.941 0 0 0-1.024.275.46.46 0 0 0 .2.745l2.379.878-.56 1.518-.4 1.076-2.445-.9-.473-.174a.955.955 0 0 0-1.024.275.443.443 0 0 0 .2.727l3.28 1.211.042.016-1.334 3.616-1.436-.529-.354-.131a1.2 1.2 0 0 0-1.026.134.56.56 0 0 0-.275.308.235.235 0 0 0 .149.263l2.46.908.115.042-.632 1.711c-1.2 0-2.405.01-3.606.01h-3.425zm-9.229-1.469c.331 0 .678-.03 1.008 0 .655.059.752.7.752 1.22v2.955h-6.551V1.807a.949.949 0 0 1 .1-.394c.019-.036.055-.08.072-.119h4.616zm-6.541 17.311h-5.86c-.558 0-1.118-.007-1.677-.013l-3.3-6.451-.313-.613 5.946-3.106 1.989 3.891zM19.5 4.1a.844.844 0 0 0 .158-.083c.008 0 .046-.018.049-.025-.08.254-.147.227-.185.17l.009.028c.045.146.3.45.384.607L21.5 7.885l-5.941 3.106-.884-1.729a.253.253 0 0 0-.026-.052l-.4-.782a6.572 6.572 0 0 1-.344-.674c-.255-.7.162-.814.651-1.069l.144-.075a1.772 1.772 0 0 0 .32-.133l.033-.015 3.622-1.895a.761.761 0 0 0 .15-.115l.625-.327.049-.026c-.009-.019-.008-.027.001.001zm-3.786-2.692c-.013 0-.012 0 0 0zm-1.9 1.146a.525.525 0 0 1 .083-.113c-.047.043.016-.006.04-.018.628-.311 1.244-.649 1.864-.975a.586.586 0 0 1 .061.032.649.649 0 0 1 .162.184c.143.23.251.491.374.732l.991 1.939-2.322 1.215-.679-1.329-.488-.954a1.242 1.242 0 0 1-.131-.333.608.608 0 0 1 .046-.38zm-2.8 7.781a1.55 1.55 0 0 1 2.252-.546c.2.368.4.733.59 1.1l2.019 3.953a23.946 23.946 0 0 0-1.015-.45c-.6-.248-1.211-.468-1.826-.674a4.1 4.1 0 0 1-1.588-.708 2.2 2.2 0 0 1-.434-2.675z" fill="#262626"/>
    </g>
</svg>
