<?xml version="1.0" encoding="UTF-8"?>
<svg data-bbox="0.442 0 61.928 20" xmlns="http://www.w3.org/2000/svg" viewBox="0 0 63 20" height="20" width="63" data-type="color">
    <g>
        <g clip-path="url(#c68775e1-674e-48f9-ac5c-32c11e7e7bbd)">
            <path fill="#ffffff" d="m23.954.353-8.108 19.345h-5.29L6.568 4.26c-.242-.95-.453-1.3-1.19-1.7C4.176 1.908 2.19 1.296.442.916l.12-.563h8.514c1.085 0 2.061.723 2.307 1.973l2.108 11.193L18.697.353h5.257Zm20.727 13.029c.02-5.106-7.06-5.387-7.011-7.668.015-.694.675-1.432 2.122-1.62.717-.094 2.693-.166 4.933.866l.88-4.103C44.4.42 42.85 0 40.923 0c-4.947 0-8.428 2.63-8.457 6.394-.032 2.785 2.485 4.34 4.38 5.264 1.951.948 2.605 1.557 2.598 2.405-.014 1.297-1.556 1.87-2.996 1.893-2.516.038-3.975-.68-5.138-1.222l-.907 4.238c1.169.537 3.327 1.005 5.564 1.028 5.257 0 8.696-2.597 8.713-6.618Zm13.06 6.316h4.629L58.33.353h-4.272c-.96 0-1.77.56-2.13 1.42L44.42 19.697h5.254l1.044-2.89h6.42l.604 2.89Zm-5.583-6.854 2.634-7.264 1.516 7.264h-4.15ZM31.104.354l-4.137 19.344h-5.005L26.102.353h5.002Z" data-color="1"/>
        </g>
        <defs fill="none">
            <clipPath id="c68775e1-674e-48f9-ac5c-32c11e7e7bbd">
                <path transform="translate(.441)" fill="#ffffff" d="M61.928 0v20H0V0h61.928z"/>
            </clipPath>
        </defs>
    </g>
</svg>
