<?xml version="1.0" encoding="UTF-8"?>
<svg data-bbox="0 0 512 512" xmlns="http://www.w3.org/2000/svg" width="512" viewBox="0 0 512 512" height="512" data-type="shape">
    <g>
        <path d="M196 482h-15v-30h-30v30h-15c-8.291 0-15 6.709-15 15s6.709 15 15 15h60c8.291 0 15-6.709 15-15s-6.709-15-15-15z"/>
        <path d="M497 240H361v-30h105c8.291 0 15-6.709 15-15V15c0-8.291-6.709-15-15-15H226c-8.291 0-15 6.709-15 15v23.018c16.523 5.876 31.948 14.727 45.205 26.728C284.506 89.399 301 126.079 301 165v45h30v30h-60v-75c0-30.249-12.817-58.755-34.937-78.018C216.845 69.58 191.957 60 166 60c-57.891 0-105 47.109-105 105v75H15c-8.291 0-15 6.709-15 15v242c0 8.291 6.709 15 15 15s15-6.709 15-15V270h31v15c0 8.291 6.709 15 15 15h75v30h-45c-24.814 0-45 20.186-45 45v30c0 8.291 6.709 15 15 15h180c8.291 0 15-6.709 15-15v-30c0-24.814-20.186-45-45-45h-45v-30h75c8.291 0 15-6.709 15-15v-15h30v60h211v-75c0-8.291-6.709-15-15-15z"/>
        <path d="M301 360v137c0 8.291 6.709 15 15 15s15-6.709 15-15v-45h151v45c0 8.291 6.709 15 15 15s15-6.709 15-15V360z"/>
    </g>
</svg>
